<svg width="20" height="20" viewBox="0 0 20 20" fill="none" xmlns="http://www.w3.org/2000/svg">
<path d="M10 4.16668C10 3.94566 10.0878 3.7337 10.2441 3.57742C10.4004 3.42114 10.6123 3.33334 10.8333 3.33334H17.5C17.721 3.33334 17.933 3.42114 18.0893 3.57742C18.2455 3.7337 18.3333 3.94566 18.3333 4.16668C18.3333 4.38769 18.2455 4.59965 18.0893 4.75593C17.933 4.91221 17.721 5.00001 17.5 5.00001H10.8333C10.6123 5.00001 10.4004 4.91221 10.2441 4.75593C10.0878 4.59965 10 4.38769 10 4.16668Z" fill="black"/>
<path d="M10 9.99999C10 9.77898 10.0878 9.56701 10.2441 9.41073C10.4004 9.25445 10.6123 9.16666 10.8333 9.16666H17.5C17.721 9.16666 17.933 9.25445 18.0893 9.41073C18.2455 9.56701 18.3333 9.77898 18.3333 9.99999C18.3333 10.221 18.2455 10.433 18.0893 10.5892C17.933 10.7455 17.721 10.8333 17.5 10.8333H10.8333C10.6123 10.8333 10.4004 10.7455 10.2441 10.5892C10.0878 10.433 10 10.221 10 9.99999Z" fill="black"/>
<path d="M10 15.8333C10 15.6123 10.0878 15.4004 10.2441 15.2441C10.4004 15.0878 10.6123 15 10.8333 15H17.5C17.721 15 17.933 15.0878 18.0893 15.2441C18.2455 15.4004 18.3333 15.6123 18.3333 15.8333C18.3333 16.0543 18.2455 16.2663 18.0893 16.4226C17.933 16.5789 17.721 16.6667 17.5 16.6667H10.8333C10.6123 16.6667 10.4004 16.5789 10.2441 16.4226C10.0878 16.2663 10 16.0543 10 15.8333Z" fill="black"/>
<path d="M4.99998 0.833329C4.85682 0.839473 4.71736 0.880681 4.59386 0.953332C4.47035 1.02598 4.36658 1.12786 4.29165 1.25L1.74998 5.41666C1.68725 5.5466 1.65466 5.68904 1.65466 5.83333C1.65466 5.97762 1.68725 6.12005 1.74998 6.25C1.81861 6.37762 1.92095 6.48397 2.04585 6.55744C2.17075 6.63091 2.31342 6.66869 2.45832 6.66666H7.49998C7.64314 6.66052 7.7826 6.61931 7.90611 6.54666C8.02962 6.47401 8.13339 6.37214 8.20832 6.25C8.29072 6.12666 8.33471 5.98166 8.33471 5.83333C8.33471 5.685 8.29072 5.54 8.20832 5.41666L5.70832 1.25C5.63969 1.12237 5.53735 1.01603 5.41245 0.942554C5.28755 0.869083 5.14488 0.831302 4.99998 0.833329Z" fill="black"/>
<path d="M5 12.5C4.50555 12.5 4.0222 12.3534 3.61108 12.0787C3.19995 11.804 2.87952 11.4135 2.6903 10.9567C2.50108 10.4999 2.45157 9.99723 2.54804 9.51228C2.6445 9.02732 2.8826 8.58187 3.23223 8.23223C3.58187 7.8826 4.02732 7.6445 4.51228 7.54804C4.99723 7.45157 5.49989 7.50108 5.95671 7.6903C6.41353 7.87952 6.80397 8.19995 7.07868 8.61108C7.35338 9.0222 7.5 9.50555 7.5 10C7.5 10.663 7.23661 11.2989 6.76777 11.7678C6.29893 12.2366 5.66304 12.5 5 12.5Z" fill="black"/>
<path d="M6.66667 18.3333H3.33333C3.11232 18.3333 2.90036 18.2455 2.74408 18.0893C2.5878 17.933 2.5 17.721 2.5 17.5V14.1667C2.5 13.9457 2.5878 13.7337 2.74408 13.5774C2.90036 13.4211 3.11232 13.3333 3.33333 13.3333H6.66667C6.88768 13.3333 7.09964 13.4211 7.25592 13.5774C7.4122 13.7337 7.5 13.9457 7.5 14.1667V17.5C7.5 17.721 7.4122 17.933 7.25592 18.0893C7.09964 18.2455 6.88768 18.3333 6.66667 18.3333Z" fill="black"/>
</svg>
