<svg width="20" height="22" viewBox="0 0 20 22" fill="none" xmlns="http://www.w3.org/2000/svg">
<path d="M12.6184 21.3285H7.43015C2.68385 21.3285 0.666199 19.3012 0.666199 14.5645V10.2506C0.666199 9.85664 0.992867 9.52997 1.38679 9.52997C1.78071 9.52997 2.10738 9.85664 2.10738 10.2506V14.5645C2.10738 18.4941 3.50052 19.8873 7.43015 19.8873H12.6088C16.5385 19.8873 17.9316 18.4941 17.9316 14.5645V10.2506C17.9316 9.85664 18.2583 9.52997 18.6522 9.52997C19.0461 9.52997 19.3728 9.85664 19.3728 10.2506V14.5645C19.3824 19.3012 17.3551 21.3285 12.6184 21.3285Z" fill="black"/>
<path d="M10.0235 11.7206C8.96667 11.7206 8.0059 11.3075 7.32374 10.5484C6.64158 9.78941 6.32452 8.79979 6.43021 7.74293L7.07395 1.32486C7.11238 0.959761 7.41983 0.671524 7.79454 0.671524H12.2814C12.6561 0.671524 12.9636 0.950153 13.002 1.32486L13.6457 7.74293C13.7514 8.79979 13.4343 9.78941 12.7522 10.5484C12.0412 11.3075 11.0804 11.7206 10.0235 11.7206ZM8.43824 2.11271L7.86178 7.88705C7.79453 8.53077 7.9867 9.13607 8.3902 9.57803C9.20687 10.4812 10.8402 10.4812 11.6569 9.57803C12.0604 9.12646 12.2526 8.52117 12.1853 7.88705L11.6088 2.11271H8.43824Z" fill="black"/>
<path d="M16.0871 11.7206C14.1367 11.7206 12.3976 10.1449 12.1959 8.20411L11.5233 1.46898C11.5041 1.26721 11.5713 1.06545 11.7059 0.911721C11.8404 0.757995 12.0325 0.671524 12.2439 0.671524H15.1743C17.999 0.671524 19.3153 1.85329 19.7092 4.75488L19.9782 7.42587C20.0935 8.5596 19.7477 9.63568 19.0079 10.4524C18.268 11.269 17.2304 11.7206 16.0871 11.7206ZM13.0414 2.11271L13.637 8.05999C13.7619 9.26097 14.8765 10.2794 16.0871 10.2794C16.8173 10.2794 17.4706 10.0008 17.9414 9.49156C18.4026 8.98234 18.6139 8.30018 18.5467 7.56999L18.2777 4.92782C17.9798 2.75643 17.2784 2.11271 15.1743 2.11271H13.0414Z" fill="black"/>
<path d="M3.91294 11.7206C2.76961 11.7206 1.73195 11.269 0.992147 10.4524C0.25234 9.63568 -0.0935437 8.5596 0.0217509 7.42587L0.281164 4.7837C0.684695 1.85329 2.00097 0.671524 4.8257 0.671524H7.7561C7.95786 0.671524 8.14998 0.757995 8.2941 0.911721C8.43822 1.06545 8.49586 1.26721 8.47665 1.46898L7.80414 8.20411C7.60237 10.1449 5.86334 11.7206 3.91294 11.7206ZM4.8257 2.11271C2.72157 2.11271 2.02019 2.74683 1.71274 4.94703L1.45333 7.56999C1.37646 8.30018 1.59744 8.98234 2.05862 9.49156C2.5198 10.0008 3.17314 10.2794 3.91294 10.2794C5.12354 10.2794 6.24766 9.26097 6.36295 8.05999L6.95865 2.11271H4.8257Z" fill="black"/>
<path d="M12.4264 21.3285H7.62251C7.22858 21.3285 6.90192 21.0018 6.90192 20.6079V18.2059C6.90192 16.1883 8.00682 15.0833 10.0245 15.0833C12.0421 15.0833 13.147 16.1883 13.147 18.2059V20.6079C13.147 21.0018 12.8204 21.3285 12.4264 21.3285ZM8.3431 19.8873H11.7059V18.2059C11.7059 16.9953 11.2351 16.5245 10.0245 16.5245C8.81389 16.5245 8.3431 16.9953 8.3431 18.2059V19.8873Z" fill="black"/>
</svg>
