<svg width="20" height="20" viewBox="0 0 20 20" fill="none" xmlns="http://www.w3.org/2000/svg">
<path d="M7.50008 9.16667C8.15935 9.16667 8.80382 8.97117 9.35198 8.6049C9.90015 8.23863 10.3274 7.71803 10.5797 7.10895C10.832 6.49986 10.898 5.82964 10.7694 5.18303C10.6407 4.53643 10.3233 3.94249 9.8571 3.47631C9.39093 3.01014 8.79699 2.69267 8.15038 2.56405C7.50378 2.43543 6.83356 2.50144 6.22447 2.75374C5.61538 3.00603 5.09479 3.43327 4.72852 3.98143C4.36224 4.5296 4.16675 5.17406 4.16675 5.83334C4.16675 6.71739 4.51794 7.56524 5.14306 8.19036C5.76818 8.81548 6.61603 9.16667 7.50008 9.16667Z" fill="black"/>
<path d="M14.1667 10.8333C14.6612 10.8333 15.1446 10.6867 15.5557 10.412C15.9668 10.1373 16.2872 9.74687 16.4764 9.29005C16.6657 8.83324 16.7152 8.33057 16.6187 7.84562C16.5222 7.36067 16.2841 6.91521 15.9345 6.56558C15.5849 6.21595 15.1394 5.97784 14.6545 5.88138C14.1695 5.78492 13.6669 5.83443 13.21 6.02365C12.7532 6.21286 12.3628 6.5333 12.0881 6.94442C11.8134 7.35554 11.6667 7.83889 11.6667 8.33334C11.6667 8.99639 11.9301 9.63227 12.399 10.1011C12.8678 10.57 13.5037 10.8333 14.1667 10.8333Z" fill="black"/>
<path d="M17.5001 16.6667C17.7211 16.6667 17.9331 16.5789 18.0893 16.4226C18.2456 16.2663 18.3334 16.0543 18.3334 15.8333C18.3327 15.0545 18.1138 14.2914 17.7014 13.6307C17.289 12.97 16.6997 12.4381 16.0004 12.0954C15.301 11.7526 14.5196 11.6128 13.7447 11.6917C12.9699 11.7705 12.2327 12.065 11.6167 12.5417C10.8005 11.7286 9.7618 11.1755 8.6316 10.952C7.50141 10.7285 6.33035 10.8447 5.2661 11.2859C4.20186 11.7271 3.29209 12.4736 2.65153 13.4312C2.01097 14.3888 1.66831 15.5146 1.66675 16.6667C1.66675 16.8877 1.75455 17.0996 1.91083 17.2559C2.06711 17.4122 2.27907 17.5 2.50008 17.5H12.5001C12.7211 17.5 12.9331 17.4122 13.0893 17.2559C13.2456 17.0996 13.3334 16.8877 13.3334 16.6667" fill="black"/>
</svg>
