<svg width="6990" height="1846" viewBox="0 0 6990 1846" fill="none" xmlns="http://www.w3.org/2000/svg">
<path d="M2107.54 1480H1873.16L1874.63 1295.43H2107.54C2160.76 1295.43 2205.68 1283.22 2242.3 1258.81C2278.92 1233.91 2306.76 1197.29 2325.8 1148.95C2344.84 1100.12 2354.36 1040.79 2354.36 970.967V921.895C2354.36 869.16 2348.99 822.773 2338.25 782.734C2327.51 742.207 2311.64 708.271 2290.64 680.928C2269.65 653.584 2243.52 633.076 2212.27 619.404C2181.51 605.732 2146.11 598.896 2106.07 598.896H1868.77V413.594H2106.07C2178.34 413.594 2244.26 425.801 2303.83 450.215C2363.88 474.629 2415.64 509.541 2459.1 554.951C2503.04 600.361 2536.98 654.072 2560.91 716.084C2584.83 778.096 2596.79 847.188 2596.79 923.359V970.967C2596.79 1046.65 2584.83 1115.74 2560.91 1178.24C2536.98 1240.25 2503.04 1293.96 2459.1 1339.38C2415.64 1384.3 2364.13 1418.96 2304.56 1443.38C2244.99 1467.79 2179.31 1480 2107.54 1480ZM2008.66 413.594V1480H1769.89V413.594H2008.66ZM3104.36 1494.65C3041.38 1494.65 2984.98 1484.64 2935.17 1464.62C2885.37 1444.6 2843.13 1417.01 2808.46 1381.86C2774.29 1346.21 2748.16 1305.2 2730.1 1258.81C2712.03 1212.42 2703 1162.86 2703 1110.13V1082.29C2703 1023.21 2711.3 968.77 2727.9 918.965C2744.5 869.16 2768.67 825.947 2800.41 789.326C2832.63 752.217 2872.19 723.652 2919.06 703.633C2965.94 683.125 3019.4 672.871 3079.46 672.871C3135.61 672.871 3185.66 682.148 3229.61 700.703C3273.55 718.77 3310.66 744.893 3340.94 779.072C3371.21 812.764 3394.16 853.535 3409.78 901.387C3425.9 948.75 3433.95 1001.97 3433.95 1061.05V1154.8H2795.28V1007.59H3209.83V990.01C3209.83 962.178 3204.71 937.764 3194.45 916.768C3184.69 895.771 3170.04 879.658 3150.51 868.428C3131.46 856.709 3107.29 850.85 3078 850.85C3050.16 850.85 3026.97 856.709 3008.42 868.428C2989.86 880.146 2974.97 896.748 2963.74 918.232C2953 939.229 2945.18 963.887 2940.3 992.207C2935.42 1020.04 2932.98 1050.07 2932.98 1082.29V1110.13C2932.98 1140.89 2937.13 1168.96 2945.43 1194.36C2953.73 1219.75 2965.94 1241.47 2982.05 1259.54C2998.16 1277.61 3017.69 1291.77 3040.64 1302.02C3063.59 1312.28 3089.71 1317.4 3119.01 1317.4C3155.14 1317.4 3189.57 1310.57 3222.28 1296.89C3255 1282.73 3283.32 1260.76 3307.24 1230.98L3414.18 1353.29C3398.06 1376.73 3375.36 1399.43 3346.06 1421.41C3317.25 1442.89 3282.59 1460.47 3242.06 1474.14C3201.53 1487.81 3155.63 1494.65 3104.36 1494.65ZM3967.16 1259.54C3967.16 1244.89 3962.52 1231.95 3953.24 1220.72C3944.45 1209.49 3928.34 1199.24 3904.9 1189.96C3881.95 1180.68 3849.48 1171.41 3807.49 1162.13C3767.94 1153.83 3731.07 1143.09 3696.89 1129.9C3662.71 1116.23 3632.93 1099.87 3607.54 1080.83C3582.15 1061.3 3562.37 1038.35 3548.21 1011.98C3534.05 985.127 3526.97 954.609 3526.97 920.43C3526.97 887.227 3534.05 855.732 3548.21 825.947C3562.86 796.162 3583.86 769.795 3611.2 746.846C3639.03 723.896 3672.72 705.83 3712.27 692.646C3752.31 679.463 3797.72 672.871 3848.5 672.871C3918.33 672.871 3978.63 683.857 4029.41 705.83C4080.19 727.314 4119.26 757.588 4146.6 796.65C4173.94 835.225 4187.62 879.414 4187.62 929.219H3959.1C3959.1 908.711 3955.19 890.889 3947.38 875.752C3939.57 860.615 3927.61 848.896 3911.49 840.596C3895.38 831.807 3874.14 827.412 3847.77 827.412C3827.26 827.412 3809.2 831.074 3793.57 838.398C3778.44 845.234 3766.47 854.756 3757.68 866.963C3749.38 879.17 3745.23 893.33 3745.23 909.443C3745.23 920.674 3747.67 930.928 3752.56 940.205C3757.93 948.994 3765.98 957.295 3776.73 965.107C3787.96 972.432 3802.36 979.023 3819.94 984.883C3838.01 990.742 3859.98 996.357 3885.86 1001.73C3941.03 1011.98 3991.33 1026.39 4036.74 1044.94C4082.63 1063.5 4119.26 1089.13 4146.6 1121.85C4174.43 1154.56 4188.35 1197.77 4188.35 1251.48C4188.35 1286.64 4180.29 1318.87 4164.18 1348.16C4148.55 1377.46 4125.85 1403.1 4096.06 1425.07C4066.28 1447.04 4030.63 1464.13 3989.13 1476.34C3947.62 1488.54 3900.75 1494.65 3848.5 1494.65C3773.8 1494.65 3710.56 1481.22 3658.81 1454.37C3607.05 1427.51 3567.99 1393.82 3541.62 1353.29C3515.74 1312.28 3502.8 1270.28 3502.8 1227.31H3717.4C3718.38 1253.68 3724.97 1275.17 3737.18 1291.77C3749.87 1308.37 3766.23 1320.58 3786.25 1328.39C3806.27 1335.71 3828.73 1339.38 3853.63 1339.38C3878.53 1339.38 3899.29 1335.96 3915.89 1329.12C3932.49 1322.29 3945.18 1313.01 3953.97 1301.29C3962.76 1289.08 3967.16 1275.17 3967.16 1259.54Z" fill="#020F40"/>
<mask id="mask0_2016_136" style="mask-type:alpha" maskUnits="userSpaceOnUse" x="4242" y="187" width="1382" height="1383">
<rect x="4242" y="187" width="1382" height="1383" fill="#D9D9D9"/>
</mask>
<g mask="url(#mask0_2016_136)">
<circle cx="4933" cy="879" r="691" fill="#F95857"/>
<path d="M4823.56 336V1461H4595.04V336H4823.56ZM4793.53 1036.93L4736.4 1038.39C4736.4 982.729 4743.24 931.703 4756.91 885.316C4771.07 838.441 4791.09 797.67 4816.97 763.002C4842.85 728.334 4873.85 701.479 4909.99 682.436C4946.61 663.393 4986.89 653.871 5030.84 653.871C5069.9 653.871 5105.54 659.486 5137.77 670.717C5170 681.947 5197.83 699.77 5221.27 724.184C5244.7 748.598 5262.77 780.58 5275.46 820.131C5288.16 859.682 5294.51 907.777 5294.51 964.418V1461H5064.53V962.953C5064.53 929.262 5059.64 902.895 5049.88 883.852C5040.6 864.809 5026.93 851.381 5008.86 843.568C4991.29 835.756 4969.8 831.85 4944.41 831.85C4914.62 831.85 4889.97 837.221 4870.44 847.963C4850.9 858.217 4835.52 872.621 4824.29 891.176C4813.06 909.73 4805.01 931.459 4800.12 956.361C4795.73 981.264 4793.53 1008.12 4793.53 1036.93Z" fill="white"/>
</g>
<path d="M5968.04 413.594V1480H5730V413.594H5968.04ZM6635.28 413.594V1480H6397.24V413.594H6635.28ZM6959.74 413.594V598.896H6079.37V413.594H6959.74Z" fill="#020F40"/>
<path d="M415.047 207.222L447.922 301.053C400.892 317.034 368.474 345.343 350.666 385.98C333.316 426.617 324.64 473.19 324.64 525.699V666.787C324.64 712.447 314.824 753.997 295.19 791.438C276.013 828.879 245.421 858.558 203.414 880.474C161.407 902.391 106.387 913.349 38.3541 913.349V818.834C85.3836 818.834 119.172 805.136 139.719 777.74C160.265 750.344 170.539 713.36 170.539 666.787V525.699C170.539 477.756 177.844 433.009 192.456 391.459C207.523 349.452 232.864 312.696 268.479 281.191C304.094 249.229 352.949 224.573 415.047 207.222ZM447.922 1455.79L415.047 1550.3C352.949 1532.49 304.094 1507.61 268.479 1475.65C232.864 1444.14 207.523 1407.39 192.456 1365.38C177.844 1323.83 170.539 1279.08 170.539 1231.14V1091.42C170.539 1059.92 165.973 1032.98 156.841 1010.6C147.709 987.775 133.326 970.196 113.693 957.867C94.5155 945.083 69.4027 938.69 38.3541 938.69V843.49C106.387 843.49 161.407 854.677 203.414 877.05C245.421 898.966 276.013 928.645 295.19 966.086C314.824 1003.07 324.64 1044.85 324.64 1091.42V1231.14C324.64 1266.3 328.293 1298.72 335.599 1328.4C343.361 1358.53 356.146 1384.56 373.953 1406.47C392.217 1428.39 416.873 1444.83 447.922 1455.79Z" fill="#020F40"/>
<path d="M1230.15 301.053L1263.02 207.222C1325.57 224.573 1374.66 249.229 1410.27 281.191C1445.89 312.696 1471 349.452 1485.61 391.459C1500.22 433.009 1507.53 477.756 1507.53 525.699V666.787C1507.53 697.379 1512.09 724.09 1521.23 746.92C1530.36 769.75 1544.74 787.557 1564.37 800.342C1584.01 812.67 1609.35 818.834 1640.4 818.834V909.24C1572.82 909.24 1517.8 898.738 1475.34 877.735C1432.87 856.275 1401.83 827.281 1382.19 790.753C1363.02 753.769 1353.43 712.447 1353.43 666.787V525.699C1353.43 490.541 1349.77 457.894 1342.47 427.759C1335.16 397.623 1322.38 371.597 1304.11 349.68C1286.31 327.764 1261.65 311.555 1230.15 301.053ZM1263.02 1550.3L1230.15 1455.79C1261.65 1444.83 1286.31 1428.39 1304.11 1406.47C1321.92 1384.56 1334.48 1358.53 1341.78 1328.4C1349.55 1298.72 1353.43 1266.3 1353.43 1231.14V1091.42C1353.43 1044.85 1363.02 1003.3 1382.19 966.771C1401.83 930.243 1432.87 901.478 1475.34 880.474C1517.8 859.014 1572.82 848.284 1640.4 848.284V938.69C1593.83 938.69 1560.04 952.617 1539.03 980.469C1518.03 1007.86 1507.53 1044.85 1507.53 1091.42V1231.14C1507.53 1279.08 1500.22 1323.83 1485.61 1365.38C1471 1407.39 1445.89 1444.14 1410.27 1475.65C1374.66 1507.61 1325.57 1532.49 1263.02 1550.3Z" fill="#020F40"/>
<path fill-rule="evenodd" clip-rule="evenodd" d="M539.559 337.578C512.704 337.578 490.934 359.349 490.934 386.204V1268.95C490.934 1278.33 493.593 1287.1 498.199 1294.53C496.731 1289.52 497.474 1283.91 500.708 1279.31L1149.67 355.421C1154.76 348.187 1164.25 345.898 1171.95 349.638C1163.4 342.13 1152.18 337.578 1139.9 337.578H539.559ZM1181.26 360.619C1182.73 365.63 1181.99 371.24 1178.75 375.846L529.785 1299.73C524.706 1306.97 515.215 1309.26 507.513 1305.52C516.071 1313.03 527.284 1317.57 539.559 1317.57H1139.9C1166.76 1317.57 1188.53 1295.8 1188.53 1268.95V386.204C1188.53 376.817 1185.87 368.051 1181.26 360.619Z" fill="#020F40"/>
<circle cx="840.197" cy="1447.08" r="77.1466" fill="#020F40"/>
</svg>
