<svg width="20" height="20" viewBox="0 0 20 20" fill="none" xmlns="http://www.w3.org/2000/svg">
<path d="M12.3084 10.3334C12.4334 10.3917 12.575 10.4167 12.7084 10.4167C12.9834 10.4167 13.2417 10.3084 13.4417 10.1167L15.2584 8.33335H16.0417C17.3084 8.33335 18.3334 7.30835 18.3334 6.04169V3.95835C18.3334 2.69169 17.3084 1.66669 16.0417 1.66669H12.2917C11.025 1.66669 10 2.69169 10 3.95835V6.04169C10 7.09169 10.7084 7.97502 11.6667 8.25002V9.37502C11.6667 9.79169 11.925 10.1667 12.3084 10.3334ZM11.25 3.95835C11.25 3.38335 11.7167 2.91669 12.2917 2.91669H16.0417C16.6167 2.91669 17.0834 3.38335 17.0834 3.95835V6.04169C17.0834 6.61669 16.6167 7.08335 16.0417 7.08335H14.7417L12.9167 8.87502V7.08335H12.2917C11.7167 7.08335 11.25 6.61669 11.25 6.04169V3.95835ZM6.66669 11.25C5.05836 11.25 3.75003 9.94169 3.75003 8.33335C3.75003 6.72502 5.05836 5.41669 6.66669 5.41669C8.27503 5.41669 9.58336 6.72502 9.58336 8.33335C9.58336 9.94169 8.27503 11.25 6.66669 11.25ZM6.66669 6.66669C5.75003 6.66669 5.00003 7.41669 5.00003 8.33335C5.00003 9.25002 5.75003 10 6.66669 10C7.58336 10 8.33336 9.25002 8.33336 8.33335C8.33336 7.41669 7.58336 6.66669 6.66669 6.66669ZM6.66669 18.3334C4.95003 18.3334 3.63336 17.8667 2.75003 16.9417C1.63669 15.7717 1.66419 14.2967 1.66669 14.1442V14.1334C1.66669 13.2417 2.41669 12.5 3.33336 12.5H10C10.9167 12.5 11.6667 13.25 11.6667 14.1667L11.6675 14.1717C11.67 14.2775 11.705 15.7634 10.5842 16.9417C9.70003 17.8667 8.38336 18.3334 6.66669 18.3334ZM3.33336 13.75C3.10003 13.75 2.91669 13.9334 2.91669 14.1667V14.1709C2.91669 14.25 2.90253 15.2942 3.66669 16.0917C4.30003 16.75 5.30836 17.0834 6.66669 17.0834C8.02503 17.0834 9.04169 16.7417 9.67502 16.075C10.4359 15.2817 10.4184 14.2484 10.4167 14.1934V14.1917C10.4167 13.9334 10.225 13.7417 10 13.7417H3.33336V13.75Z" fill="black"/>
</svg>
