<svg width="20" height="20" viewBox="0 0 20 20" fill="none" xmlns="http://www.w3.org/2000/svg">
<path fill-rule="evenodd" clip-rule="evenodd" d="M3.58711 15.4113C2.21669 13.9075 1.38336 11.9225 1.38336 9.74584C1.38336 5.05251 5.25711 1.24792 10.0354 1.24792C14.8134 1.24792 18.6871 5.05251 18.6871 9.74584C18.6871 13.0646 16.7496 15.9375 13.9259 17.3367C12.1377 18.2674 10.1509 18.7516 8.13503 18.7479C5.57169 18.7479 3.19003 17.9817 1.21503 16.67C1.21503 16.67 2.53961 16.5254 3.58586 15.4108H3.58669L3.58711 15.4113ZM14.0996 13.9521C16.3384 11.7142 16.3384 8.08542 14.0996 5.84667C13.104 4.84826 11.7742 4.25355 10.3663 4.17709C10.3254 3.15751 10.8742 2.46917 10.8767 2.46584V2.46542C9.2612 2.77691 7.77651 3.56643 6.61503 4.73167C5.71805 5.62603 5.03998 6.71565 4.63378 7.91542C4.69128 7.76292 4.75586 7.61209 4.82669 7.46376C4.74503 7.67209 4.67128 7.88459 4.60461 8.10209C3.94919 10.0921 4.41169 12.3696 5.99419 13.9521C8.23253 16.1904 11.8613 16.1904 14.0996 13.9521Z" fill="black"/>
<path fill-rule="evenodd" clip-rule="evenodd" d="M7.13751 9.31042V10.4967C7.13751 10.724 7.22781 10.942 7.38855 11.1027C7.54928 11.2635 7.76728 11.3538 7.9946 11.3538C8.22191 11.3538 8.43991 11.2635 8.60065 11.1027C8.76138 10.942 8.85168 10.724 8.85168 10.4967V9.31042C8.85168 9.08311 8.76138 8.86511 8.60065 8.70437C8.43991 8.54364 8.22191 8.45334 7.9946 8.45334C7.76728 8.45334 7.54928 8.54364 7.38855 8.70437C7.22781 8.86511 7.13751 9.08311 7.13751 9.31042ZM11.3804 9.31042V10.4967C11.3804 10.724 11.4707 10.942 11.6315 11.1027C11.7922 11.2635 12.0102 11.3538 12.2375 11.3538C12.4648 11.3538 12.6828 11.2635 12.8436 11.1027C13.0043 10.942 13.0946 10.724 13.0946 10.4967V9.31042C13.0946 9.08311 13.0043 8.86511 12.8436 8.70437C12.6828 8.54364 12.4648 8.45334 12.2375 8.45334C12.0102 8.45334 11.7922 8.54364 11.6315 8.70437C11.4707 8.86511 11.3804 9.08311 11.3804 9.31042Z" fill="black"/>
</svg>
