<svg width="20" height="20" viewBox="0 0 20 20" fill="none" xmlns="http://www.w3.org/2000/svg">
<path d="M11.6666 10.8333C10.9722 10.8333 10.3819 10.5903 9.89581 10.1041C9.4097 9.61804 9.16665 9.02776 9.16665 8.33331C9.16665 7.63887 9.4097 7.04859 9.89581 6.56248C10.3819 6.07637 10.9722 5.83331 11.6666 5.83331C12.3611 5.83331 12.9514 6.07637 13.4375 6.56248C13.9236 7.04859 14.1666 7.63887 14.1666 8.33331C14.1666 9.02776 13.9236 9.61804 13.4375 10.1041C12.9514 10.5903 12.3611 10.8333 11.6666 10.8333ZM5.83331 13.3333C5.37498 13.3333 4.98248 13.17 4.65581 12.8433C4.32915 12.5166 4.16609 12.1244 4.16665 11.6666V4.99998C4.16665 4.54165 4.32998 4.14915 4.65665 3.82248C4.98331 3.49581 5.37554 3.33276 5.83331 3.33331H17.5C17.9583 3.33331 18.3508 3.49665 18.6775 3.82331C19.0041 4.14998 19.1672 4.5422 19.1666 4.99998V11.6666C19.1666 12.125 19.0033 12.5175 18.6766 12.8441C18.35 13.1708 17.9578 13.3339 17.5 13.3333H5.83331ZM7.49998 11.6666H15.8333C15.8333 11.2083 15.9966 10.8158 16.3233 10.4891C16.65 10.1625 17.0422 9.99943 17.5 9.99998V6.66665C17.0416 6.66665 16.6491 6.50331 16.3225 6.17665C15.9958 5.84998 15.8328 5.45776 15.8333 4.99998H7.49998C7.49998 5.45831 7.33665 5.85081 7.00998 6.17748C6.68331 6.50415 6.29109 6.6672 5.83331 6.66665V9.99998C6.29165 9.99998 6.68415 10.1633 7.01081 10.49C7.33748 10.8166 7.50054 11.2089 7.49998 11.6666ZM16.6666 16.6666H2.49998C2.04165 16.6666 1.64915 16.5033 1.32248 16.1766C0.995814 15.85 0.832759 15.4578 0.833314 15V5.83331H2.49998V15H16.6666V16.6666Z" fill="black"/>
</svg>
